# Blender v2.78 (sub 0) OBJ File: ''
# www.blender.org
mtllib torch001.mtl
o torch_1
v -2.500000 15.000000 0.500002
v -2.500000 14.000000 -0.499998
v -2.500000 14.000000 0.500002
v -2.500000 15.000000 -0.499998
v -2.500000 16.000000 1.500003
v -2.500000 15.000000 1.500003
v -2.500000 16.000000 0.500003
v -2.500000 16.000000 -0.499997
v -2.500000 15.000000 -1.499997
v -2.500000 16.000000 -1.499997
v -1.500000 3.000000 0.500000
v -1.500000 2.000000 -0.500000
v -1.500000 2.000000 0.500000
v -1.500000 3.000000 -0.500000
v -1.500000 9.000000 0.500001
v -1.500000 9.000000 -0.499999
v -1.500000 14.000000 0.500002
v -1.500000 10.000000 -0.499998
v -1.500000 10.000000 0.500002
v -1.500000 14.000000 -0.499998
v -1.500000 15.000000 1.500003
v -1.500000 14.000000 1.500002
v -1.500000 15.000000 0.500002
v -1.500000 15.000000 -0.499998
v -1.500000 14.000000 -1.499998
v -1.500000 15.000000 -1.499997
v -1.500000 16.000000 2.500003
v -1.500000 15.000000 2.500002
v -1.500000 16.000000 1.500003
v -1.500000 16.000000 0.500003
v -1.500000 16.000000 -0.499997
v -1.500000 16.000000 -1.499997
v -1.500000 15.000000 -2.499998
v -1.500000 16.000000 -2.499997
v -1.500000 18.000000 0.500003
v -1.500000 18.000000 -0.499997
v -0.500000 2.000000 0.500000
v -0.500000 1.000000 -0.500000
v -0.500000 1.000000 0.500000
v -0.500000 2.000000 -0.500000
v -0.500000 10.000000 0.500002
v -0.500000 11.000000 0.500002
v -0.500000 11.000000 -0.499998
v -0.500000 10.000000 -0.499998
v -0.500000 17.000000 2.500003
v -0.500000 16.000000 1.500003
v -0.500000 16.000000 2.500003
v -0.500000 17.000000 1.500003
v -0.500000 17.000000 -1.499997
v -0.500000 16.000000 -2.499997
v -0.500000 16.000000 -1.499997
v -0.500000 17.000000 -2.499997
v -0.500000 19.000000 0.500003
v -0.500000 18.000000 -0.499997
v -0.500000 18.000000 0.500003
v -0.500000 19.000000 -0.499997
v 0.500000 17.000000 1.500003
v 0.500000 15.000000 0.500002
v 0.500000 15.000000 1.500003
v 0.500000 17.000000 0.500003
v 0.500000 17.000000 -0.499997
v 0.500000 15.000000 -1.499997
v 0.500000 15.000000 -0.499998
v 0.500000 17.000000 -1.499997
v -1.500000 15.000000 1.500003
v -1.500000 15.000000 0.500002
v -1.500000 16.000000 1.500003
v -1.500000 16.000000 0.500003
v -1.500000 15.000000 -0.499998
v -1.500000 15.000000 -1.499997
v -1.500000 16.000000 -0.499997
v -1.500000 16.000000 -1.499997
v 0.500000 1.000000 0.500000
v 0.500000 1.000000 -0.500000
v 0.500000 3.000000 0.500000
v 0.500000 3.000000 -0.500000
v 0.500000 9.000000 0.500001
v 0.500000 9.000000 -0.499999
v 0.500000 10.000000 0.500002
v 0.500000 11.000000 0.500002
v 0.500000 10.000000 -0.499998
v 0.500000 11.000000 -0.499998
v 0.500000 14.000000 0.500002
v 0.500000 14.000000 -0.499998
v 0.500000 14.000000 1.500002
v 0.500000 15.000000 1.500003
v 0.500000 15.000000 0.500002
v 0.500000 14.000000 -1.499998
v 0.500000 15.000000 -0.499998
v 0.500000 15.000000 -1.499997
v 0.500000 15.000000 2.500002
v 0.500000 17.000000 2.500003
v 0.500000 17.000000 1.500003
v 0.500000 16.000000 0.500003
v 0.500000 16.000000 -0.499997
v 0.500000 17.000000 0.500003
v 0.500000 17.000000 -0.499997
v 0.500000 15.000000 -2.499998
v 0.500000 17.000000 -1.499997
v 0.500000 17.000000 -2.499997
v 0.500000 19.000000 0.500003
v 0.500000 19.000000 -0.499997
v 1.500000 14.000000 0.500002
v 1.500000 14.000000 -0.499998
v 1.500000 15.000000 0.500002
v 1.500000 15.000000 -0.499998
v 1.500000 16.000000 0.500003
v 1.500000 15.000000 -1.499997
v 1.500000 15.000000 1.500003
v 1.500000 16.000000 -0.499997
v 1.500000 17.000000 1.500003
v 1.500000 17.000000 0.500003
v 1.500000 17.000000 -0.499997
v 1.500000 17.000000 -1.499997
v -0.500000 16.000000 2.500003
v -1.500000 16.000000 2.500003
v -1.500000 15.000000 2.500002
v 0.500000 15.000000 2.500002
v -0.500000 17.000000 2.500003
v 0.500000 17.000000 2.500003
v -1.500000 15.000000 1.500003
v -2.500000 16.000000 1.500003
v -2.500000 15.000000 1.500003
v -1.500000 16.000000 1.500003
v 0.500000 14.000000 1.500002
v -1.500000 14.000000 1.500002
v 0.500000 15.000000 1.500003
v 1.500000 15.000000 1.500003
v 0.500000 17.000000 1.500003
v 1.500000 17.000000 1.500003
v -1.500000 14.000000 0.500002
v -2.500000 15.000000 0.500002
v -2.500000 14.000000 0.500002
v -1.500000 15.000000 0.500002
v -0.500000 2.000000 0.500000
v -1.500000 3.000000 0.500000
v -1.500000 2.000000 0.500000
v -0.500000 9.000000 0.500001
v -1.500000 9.000000 0.500001
v -0.500000 10.000000 0.500002
v -1.500000 10.000000 0.500002
v -0.500000 11.000000 0.500002
v -0.500000 18.000000 0.500003
v -1.500000 16.000000 0.500003
v -1.500000 18.000000 0.500003
v 0.500000 1.000000 0.500000
v -0.500000 1.000000 0.500000
v 0.500000 3.000000 0.500000
v 0.500000 9.000000 0.500001
v 0.500000 11.000000 0.500002
v 0.500000 14.000000 0.500002
v 0.500000 15.000000 0.500002
v -0.500000 19.000000 0.500003
v 0.500000 17.000000 0.500003
v 0.500000 19.000000 0.500003
v 0.500000 10.000000 0.500002
v 1.500000 14.000000 0.500002
v 1.500000 15.000000 0.500002
v -1.500000 15.000000 -0.499998
v -2.500000 16.000000 -0.499997
v -2.500000 15.000000 -0.499998
v -1.500000 16.000000 -0.499997
v 1.500000 16.000000 -0.499997
v 0.500000 17.000000 -0.499997
v 0.500000 16.000000 -0.499997
v 1.500000 17.000000 -0.499997
v -0.500000 16.000000 -1.499997
v -1.500000 16.000000 -1.499997
v -1.500000 15.000000 -1.499997
v 0.500000 15.000000 -1.499997
v -0.500000 17.000000 -1.499997
v 0.500000 17.000000 -1.499997
v -1.500000 15.000000 1.500003
v -1.500000 16.000000 1.500003
v -0.500000 16.000000 1.500003
v 0.500000 15.000000 1.500003
v -0.500000 17.000000 1.500003
v 0.500000 17.000000 1.500003
v -2.500000 15.000000 0.500002
v -2.500000 16.000000 0.500003
v -1.500000 15.000000 0.500002
v -1.500000 16.000000 0.500003
v 0.500000 16.000000 0.500003
v 0.500000 17.000000 0.500003
v 1.500000 16.000000 0.500003
v 1.500000 17.000000 0.500003
v -2.500000 14.000000 -0.499998
v -2.500000 15.000000 -0.499998
v -1.500000 14.000000 -0.499998
v -1.500000 15.000000 -0.499998
v -1.500000 2.000000 -0.500000
v -1.500000 3.000000 -0.500000
v -0.500000 2.000000 -0.500000
v -1.500000 9.000000 -0.499999
v -0.500000 9.000000 -0.499999
v -1.500000 10.000000 -0.499998
v -0.500000 10.000000 -0.499998
v -0.500000 11.000000 -0.499998
v -1.500000 16.000000 -0.499997
v -0.500000 18.000000 -0.499997
v -1.500000 18.000000 -0.499997
v -0.500000 1.000000 -0.500000
v 0.500000 1.000000 -0.500000
v 0.500000 3.000000 -0.500000
v 0.500000 9.000000 -0.499999
v 0.500000 11.000000 -0.499998
v 0.500000 14.000000 -0.499998
v -0.500000 19.000000 -0.499997
v 0.500000 15.000000 -0.499998
v 0.500000 17.000000 -0.499997
v 0.500000 19.000000 -0.499997
v 0.500000 10.000000 -0.499998
v 1.500000 14.000000 -0.499998
v 1.500000 15.000000 -0.499998
v -2.500000 15.000000 -1.499997
v -2.500000 16.000000 -1.499997
v -1.500000 15.000000 -1.499997
v -1.500000 16.000000 -1.499997
v -1.500000 14.000000 -1.499998
v 0.500000 14.000000 -1.499998
v 0.500000 15.000000 -1.499997
v 0.500000 17.000000 -1.499997
v 1.500000 15.000000 -1.499997
v 1.500000 17.000000 -1.499997
v -1.500000 15.000000 -2.499998
v -1.500000 16.000000 -2.499997
v -0.500000 16.000000 -2.499997
v -0.500000 17.000000 -2.499997
v 0.500000 15.000000 -2.499998
v 0.500000 17.000000 -2.499997
v -0.500000 1.000000 -0.500000
v 0.500000 1.000000 0.500000
v -0.500000 1.000000 0.500000
v 0.500000 1.000000 -0.500000
v -1.500000 2.000000 -0.500000
v -0.500000 2.000000 0.500000
v -1.500000 2.000000 0.500000
v -0.500000 2.000000 -0.500000
v -1.500000 9.000000 0.500001
v -0.500000 9.000000 0.500001
v 0.500000 9.000000 0.500001
v -1.500000 9.000000 -0.499999
v 0.500000 9.000000 -0.499999
v -0.500000 9.000000 -0.499999
v -1.500000 14.000000 0.500002
v 0.500000 14.000000 1.500002
v -1.500000 14.000000 1.500002
v 0.500000 14.000000 0.500002
v -2.500000 14.000000 -0.499998
v -2.500000 14.000000 0.500002
v -1.500000 14.000000 -0.499998
v 0.500000 14.000000 -0.499998
v 1.500000 14.000000 0.500002
v 1.500000 14.000000 -0.499998
v -1.500000 14.000000 -1.499998
v 0.500000 14.000000 -1.499998
v -1.500000 15.000000 1.500003
v 0.500000 15.000000 2.500002
v -1.500000 15.000000 2.500002
v 0.500000 15.000000 1.500003
v -2.500000 15.000000 0.500002
v -2.500000 15.000000 1.500003
v -1.500000 15.000000 0.500002
v 0.500000 15.000000 0.500002
v 1.500000 15.000000 1.500003
v 1.500000 15.000000 0.500002
v -2.500000 15.000000 -1.499997
v -1.500000 15.000000 -0.499998
v -2.500000 15.000000 -0.499998
v -1.500000 15.000000 -1.499997
v 0.500000 15.000000 -1.499997
v 1.500000 15.000000 -0.499998
v 0.500000 15.000000 -0.499998
v 1.500000 15.000000 -1.499997
v -1.500000 15.000000 -2.499998
v 0.500000 15.000000 -2.499998
v -1.500000 10.000000 0.500002
v -0.500000 10.000000 0.500002
v 0.500000 10.000000 0.500002
v -1.500000 10.000000 -0.499998
v -0.500000 10.000000 -0.499998
v 0.500000 10.000000 -0.499998
v -0.500000 11.000000 0.500002
v 0.500000 11.000000 0.500002
v 0.500000 11.000000 -0.499998
v -0.500000 11.000000 -0.499998
v -1.500000 15.000000 1.500003
v 0.500000 15.000000 1.500003
v -1.500000 15.000000 0.500002
v 0.500000 15.000000 0.500002
v -2.500000 15.000000 0.500002
v -2.500000 15.000000 -0.499998
v -1.500000 15.000000 -0.499998
v 0.500000 15.000000 -0.499998
v -1.500000 15.000000 -1.499997
v 0.500000 15.000000 -1.499997
v -1.500000 16.000000 2.500003
v -0.500000 16.000000 2.500003
v -1.500000 16.000000 1.500003
v -0.500000 16.000000 1.500003
v -2.500000 16.000000 1.500003
v -2.500000 16.000000 0.500003
v -1.500000 16.000000 0.500003
v 0.500000 16.000000 0.500003
v 1.500000 16.000000 0.500003
v 0.500000 16.000000 -0.499997
v 1.500000 16.000000 -0.499997
v -2.500000 16.000000 -0.499997
v -1.500000 16.000000 -0.499997
v -2.500000 16.000000 -1.499997
v -1.500000 16.000000 -1.499997
v -0.500000 16.000000 -1.499997
v -1.500000 16.000000 -2.499997
v -0.500000 16.000000 -2.499997
v -0.500000 17.000000 2.500003
v 0.500000 17.000000 2.500003
v -0.500000 17.000000 1.500003
v 0.500000 17.000000 1.500003
v 1.500000 17.000000 1.500003
v 0.500000 17.000000 0.500003
v 1.500000 17.000000 0.500003
v 0.500000 17.000000 -0.499997
v 1.500000 17.000000 -0.499997
v 0.500000 17.000000 -1.499997
v 1.500000 17.000000 -1.499997
v -0.500000 17.000000 -1.499997
v -0.500000 17.000000 -2.499997
v 0.500000 17.000000 -2.499997
v -1.500000 18.000000 0.500003
v -0.500000 18.000000 0.500003
v -1.500000 18.000000 -0.499997
v -0.500000 18.000000 -0.499997
v -0.500000 19.000000 0.500003
v 0.500000 19.000000 0.500003
v -0.500000 19.000000 -0.499997
v 0.500000 19.000000 -0.499997
vt 0.0000 0.0000
vt 0.0000 0.0000
vt 0.0000 0.0000
vt 0.0000 0.0000
vt 0.0000 0.0000
vt 0.0000 0.0000
vt 0.0000 0.0000
vt 0.0000 0.0000
vt 0.0000 0.0000
vt 0.0000 0.0000
vt 0.0000 0.0000
vt 0.0000 0.0000
vt 0.0000 0.0000
vt 0.0000 0.0000
vt 0.0000 0.0000
vt 0.0000 0.0000
vt 0.9785 0.5000
vt 0.9785 0.5000
vt 0.9785 0.5000
vt 0.9785 0.5000
vt 0.9785 0.5000
vt 0.9785 0.5000
vt 0.9785 0.5000
vt 0.9785 0.5000
vt 0.9785 0.5000
vt 0.9785 0.5000
vt 0.9746 0.5000
vt 0.9746 0.5000
vt 0.9746 0.5000
vt 0.9746 0.5000
vt 0.8730 0.5000
vt 0.8730 0.5000
vt 0.8730 0.5000
vt 0.8730 0.5000
vt 0.8730 0.5000
vt 0.8730 0.5000
vt 0.8730 0.5000
vt 0.8730 0.5000
vt 0.9785 0.5000
vt 0.9785 0.5000
vt 0.9785 0.5000
vt 0.9785 0.5000
vt 0.9785 0.5000
vt 0.9785 0.5000
vt 0.9785 0.5000
vt 0.9785 0.5000
vt 0.9785 0.5000
vt 0.9785 0.5000
vt 0.9785 0.5000
vt 0.2090 0.5000
vt 0.2090 0.5000
vt 0.2090 0.5000
vt 0.2090 0.5000
vt 0.9785 0.5000
vt 0.9785 0.5000
vt 0.9785 0.5000
vt 0.2090 0.5000
vt 0.2090 0.5000
vt 0.9746 0.5000
vt 0.9746 0.5000
vt 0.9746 0.5000
vt 0.9746 0.5000
vt 0.9785 0.5000
vt 0.9785 0.5000
vt 0.9785 0.5000
vt 0.9785 0.5000
vt 0.9785 0.5000
vt 0.9785 0.5000
vt 0.9785 0.5000
vt 0.9785 0.5000
vt 0.2090 0.5000
vt 0.2090 0.5000
vt 0.2090 0.5000
vt 0.2090 0.5000
vt 0.9785 0.5000
vt 0.9785 0.5000
vt 0.9785 0.5000
vt 0.9785 0.5000
vt 0.9785 0.5000
vt 0.9785 0.5000
vt 0.9785 0.5000
vt 0.9785 0.5000
vt 0.9785 0.5000
vt 0.9785 0.5000
vt 0.9785 0.5000
vt 0.9785 0.5000
vt 0.9785 0.5000
vt 0.9785 0.5000
vt 0.9785 0.5000
vt 0.9785 0.5000
vt 0.9746 0.5000
vt 0.9746 0.5000
vt 0.9746 0.5000
vt 0.9746 0.5000
vt 0.8730 0.5000
vt 0.8730 0.5000
vt 0.8730 0.5000
vt 0.8730 0.5000
vt 0.8730 0.5000
vt 0.8730 0.5000
vt 0.8730 0.5000
vt 0.8730 0.5000
vt 0.9785 0.5000
vt 0.9785 0.5000
vt 0.9785 0.5000
vt 0.9785 0.5000
vt 0.9785 0.5000
vt 0.9785 0.5000
vt 0.9785 0.5000
vt 0.9785 0.5000
vt 0.9785 0.5000
vt 0.9785 0.5000
vt 0.9785 0.5000
vt 0.2090 0.5000
vt 0.2090 0.5000
vt 0.2090 0.5000
vt 0.2090 0.5000
vt 0.9785 0.5000
vt 0.9785 0.5000
vt 0.9785 0.5000
vt 0.2090 0.5000
vt 0.2090 0.5000
vt 0.9785 0.5000
vt 0.9785 0.5000
vt 0.9785 0.5000
vt 0.9785 0.5000
vt 0.9785 0.5000
vt 0.9785 0.5000
vt 0.9785 0.5000
vt 0.9785 0.5000
vt 0.9785 0.5000
vt 0.9785 0.5000
vt 0.9785 0.5000
vt 0.9785 0.5000
vt 0.9785 0.5000
vt 0.9785 0.5000
vt 0.9785 0.5000
vt 0.9785 0.5000
vt 0.9785 0.5000
vt 0.9785 0.5000
vt 0.9785 0.5000
vt 0.9785 0.5000
vt 0.9785 0.5000
vt 0.9785 0.5000
vt 0.9785 0.5000
vt 0.9785 0.5000
vt 0.9785 0.5000
vt 0.9785 0.5000
vt 0.9785 0.5000
vt 0.9785 0.5000
vt 0.9785 0.5000
vt 0.9785 0.5000
vt 0.9785 0.5000
vt 0.9785 0.5000
vt 0.9746 0.5000
vt 0.9746 0.5000
vt 0.9746 0.5000
vt 0.8730 0.5000
vt 0.8730 0.5000
vt 0.8730 0.5000
vt 0.8730 0.5000
vt 0.8730 0.5000
vt 0.8730 0.5000
vt 0.8730 0.5000
vt 0.2090 0.5000
vt 0.2090 0.5000
vt 0.2090 0.5000
vt 0.2090 0.5000
vt 0.9746 0.5000
vt 0.9746 0.5000
vt 0.8730 0.5000
vt 0.9746 0.5000
vt 0.8730 0.5000
vt 0.8730 0.5000
vt 0.8730 0.5000
vt 0.2090 0.5000
vt 0.2090 0.5000
vt 0.2090 0.5000
vt 0.2090 0.5000
vt 0.9785 0.5000
vt 0.9785 0.5000
vt 0.9785 0.5000
vt 0.9785 0.5000
vt 0.9785 0.5000
vt 0.9785 0.5000
vt 0.9785 0.5000
vt 0.9785 0.5000
vt 0.9785 0.5000
vt 0.9785 0.5000
vt 0.9785 0.5000
vt 0.9785 0.5000
vt 0.9785 0.5000
vt 0.9785 0.5000
vt 0.9785 0.5000
vt 0.9785 0.5000
vt 0.9785 0.5000
vt 0.9785 0.5000
vt 0.9785 0.5000
vt 0.9785 0.5000
vt 0.9785 0.5000
vt 0.9785 0.5000
vt 0.9785 0.5000
vt 0.9785 0.5000
vt 0.9785 0.5000
vt 0.9785 0.5000
vt 0.9785 0.5000
vt 0.9785 0.5000
vt 0.9785 0.5000
vt 0.9785 0.5000
vt 0.9785 0.5000
vt 0.9785 0.5000
vt 0.9785 0.5000
vt 0.9785 0.5000
vt 0.9785 0.5000
vt 0.9785 0.5000
vt 0.9746 0.5000
vt 0.9746 0.5000
vt 0.9746 0.5000
vt 0.8730 0.5000
vt 0.8730 0.5000
vt 0.8730 0.5000
vt 0.8730 0.5000
vt 0.8730 0.5000
vt 0.8730 0.5000
vt 0.8730 0.5000
vt 0.2090 0.5000
vt 0.2090 0.5000
vt 0.2090 0.5000
vt 0.2090 0.5000
vt 0.9746 0.5000
vt 0.9746 0.5000
vt 0.8730 0.5000
vt 0.9746 0.5000
vt 0.8730 0.5000
vt 0.8730 0.5000
vt 0.8730 0.5000
vt 0.2090 0.5000
vt 0.2090 0.5000
vt 0.2090 0.5000
vt 0.2090 0.5000
vt 0.9785 0.5000
vt 0.9785 0.5000
vt 0.9785 0.5000
vt 0.9785 0.5000
vt 0.9785 0.5000
vt 0.9785 0.5000
vt 0.9785 0.5000
vt 0.9785 0.5000
vt 0.9785 0.5000
vt 0.9785 0.5000
vt 0.9785 0.5000
vt 0.9785 0.5000
vt 0.9785 0.5000
vt 0.9785 0.5000
vt 0.9785 0.5000
vt 0.9785 0.5000
vt 0.9785 0.5000
vt 0.9785 0.5000
vt 0.9785 0.5000
vt 0.9785 0.5000
vt 0.9746 0.5000
vt 0.9746 0.5000
vt 0.9746 0.5000
vt 0.9746 0.5000
vt 0.9746 0.5000
vt 0.9746 0.5000
vt 0.9746 0.5000
vt 0.9746 0.5000
vt 0.9785 0.5000
vt 0.9785 0.5000
vt 0.9785 0.5000
vt 0.9785 0.5000
vt 0.9785 0.5000
vt 0.9785 0.5000
vt 0.9785 0.5000
vt 0.9785 0.5000
vt 0.9785 0.5000
vt 0.9785 0.5000
vt 0.9785 0.5000
vt 0.9785 0.5000
vt 0.9785 0.5000
vt 0.9785 0.5000
vt 0.9785 0.5000
vt 0.9785 0.5000
vt 0.9785 0.5000
vt 0.9785 0.5000
vt 0.9785 0.5000
vt 0.9785 0.5000
vt 0.9785 0.5000
vt 0.9785 0.5000
vt 0.9785 0.5000
vt 0.9785 0.5000
vt 0.9785 0.5000
vt 0.9785 0.5000
vt 0.9785 0.5000
vt 0.9785 0.5000
vt 0.9785 0.5000
vt 0.9785 0.5000
vt 0.9785 0.5000
vt 0.9785 0.5000
vt 0.9785 0.5000
vt 0.9785 0.5000
vt 0.9785 0.5000
vt 0.9785 0.5000
vt 0.9785 0.5000
vt 0.9785 0.5000
vt 0.9785 0.5000
vt 0.9785 0.5000
vt 0.9785 0.5000
vt 0.9785 0.5000
vt 0.9785 0.5000
vt 0.9785 0.5000
vt 0.9785 0.5000
vt 0.9785 0.5000
vt 0.9785 0.5000
vt 0.9785 0.5000
vt 0.9785 0.5000
vt 0.9785 0.5000
vt 0.9785 0.5000
vt 0.9785 0.5000
vt 0.9785 0.5000
vt 0.9785 0.5000
vt 0.9785 0.5000
vt 0.9785 0.5000
vt 0.9785 0.5000
vt 0.9785 0.5000
vt 0.9785 0.5000
vt 0.9785 0.5000
vt 0.9785 0.5000
vt 0.9785 0.5000
vt 0.9785 0.5000
vt 0.9785 0.5000
vt 0.9785 0.5000
vt 0.9785 0.5000
vt 0.9785 0.5000
vt 0.9785 0.5000
vt 0.9785 0.5000
vt 0.9785 0.5000
vt 0.9785 0.5000
vt 0.9785 0.5000
vt 0.9785 0.5000
vt 0.9785 0.5000
vt 0.2090 0.5000
vt 0.2090 0.5000
vt 0.2090 0.5000
vt 0.2090 0.5000
vt 0.2090 0.5000
vt 0.2090 0.5000
vt 0.2090 0.5000
vt 0.2090 0.5000
vn 0.0000 -0.0000 1.0000
vn -1.0000 0.0000 0.0000
vn 0.0000 0.0000 -1.0000
vn 1.0000 -0.0000 0.0000
vn 0.0000 -1.0000 -0.0000
vn 0.0000 1.0000 0.0000
usemtl palette
s off
f 279/1/1 278/2/1 240/3/1 241/4/1
f 240/3/1 278/2/1 277/5/1 239/6/1
f 242/7/2 239/6/2 277/5/2 280/8/2
f 280/8/3 281/9/3 244/10/3 242/7/3
f 244/10/3 281/9/3 282/11/3 243/12/3
f 282/11/4 279/1/4 241/4/4 243/12/4
f 284/13/1 283/14/1 278/2/1 279/1/1
f 285/15/3 282/11/3 281/9/3 286/16/3
f 282/11/4 285/15/4 284/13/4 279/1/4
s 1
f 1/17/2 2/18/2 3/19/2
f 4/20/2 2/18/2 1/17/2
f 5/21/2 1/17/2 6/22/2
f 7/23/2 1/17/2 5/21/2
f 8/24/2 9/25/2 4/20/2
f 10/26/2 9/25/2 8/24/2
f 11/27/2 12/28/2 13/29/2
f 14/30/2 12/28/2 11/27/2
f 15/31/2 14/32/2 11/33/2
f 16/34/2 14/32/2 15/31/2
f 17/35/2 18/36/2 19/37/2
f 20/38/2 18/36/2 17/35/2
f 21/39/2 17/40/2 22/41/2
f 23/42/2 17/40/2 21/39/2
f 24/43/2 25/44/2 20/45/2
f 26/46/2 25/44/2 24/43/2
f 27/47/2 21/39/2 28/48/2
f 29/49/2 21/39/2 27/47/2
f 30/50/2 24/51/2 23/52/2
f 31/53/2 24/51/2 30/50/2
f 32/54/2 33/55/2 26/46/2
f 34/56/2 33/55/2 32/54/2
f 35/57/2 31/53/2 30/50/2
f 36/58/2 31/53/2 35/57/2
f 37/59/2 38/60/2 39/61/2
f 40/62/2 38/60/2 37/59/2
f 45/63/2 46/64/2 47/65/2
f 48/66/2 46/64/2 45/63/2
f 49/67/2 50/68/2 51/69/2
f 52/70/2 50/68/2 49/67/2
f 53/71/2 54/72/2 55/73/2
f 56/74/2 54/72/2 53/71/2
f 57/75/2 58/76/2 59/77/2
f 60/78/2 58/76/2 57/75/2
f 61/79/2 62/80/2 63/81/2
f 64/82/2 62/80/2 61/79/2
f 65/83/4 66/84/4 67/85/4
f 67/85/4 66/84/4 68/86/4
f 69/87/4 70/88/4 71/89/4
f 71/89/4 70/88/4 72/90/4
f 73/91/4 74/92/4 75/93/4
f 75/93/4 74/92/4 76/94/4
f 75/95/4 76/96/4 77/97/4
f 77/97/4 76/96/4 78/98/4
f 80/99/4 82/100/4 83/101/4
f 83/101/4 82/100/4 84/102/4
f 85/103/4 83/104/4 86/105/4
f 86/105/4 83/104/4 87/106/4
f 84/107/4 88/108/4 89/109/4
f 89/109/4 88/108/4 90/110/4
f 91/111/4 86/105/4 92/112/4
f 92/112/4 86/105/4 93/113/4
f 94/114/4 95/115/4 96/116/4
f 96/116/4 95/115/4 97/117/4
f 90/110/4 98/118/4 99/119/4
f 99/119/4 98/118/4 100/120/4
f 96/116/4 97/117/4 101/121/4
f 101/121/4 97/117/4 102/122/4
f 103/123/4 104/124/4 105/125/4
f 105/125/4 104/124/4 106/126/4
f 105/125/4 106/126/4 107/127/4
f 106/126/4 108/128/4 107/127/4
f 109/129/4 105/125/4 107/127/4
f 107/127/4 108/128/4 110/130/4
f 109/129/4 107/127/4 111/131/4
f 111/131/4 107/127/4 112/132/4
f 110/130/4 108/128/4 113/133/4
f 113/133/4 108/128/4 114/134/4
f 115/135/1 116/136/1 117/137/1
f 118/138/1 119/139/1 115/135/1
f 118/138/1 115/135/1 117/137/1
f 120/140/1 119/139/1 118/138/1
f 121/141/1 122/142/1 123/143/1
f 124/144/1 122/142/1 121/141/1
f 125/145/1 121/141/1 126/146/1
f 127/147/1 121/141/1 125/145/1
f 128/148/1 129/149/1 127/147/1
f 130/150/1 129/149/1 128/148/1
f 131/151/1 132/152/1 133/153/1
f 134/154/1 132/152/1 131/151/1
f 135/155/1 136/156/1 137/157/1
f 138/158/1 139/159/1 136/160/1
f 140/161/1 131/162/1 141/163/1
f 142/164/1 131/162/1 140/161/1
f 143/165/1 144/166/1 134/167/1
f 143/165/1 145/168/1 144/166/1
f 146/169/1 135/155/1 147/170/1
f 148/171/1 138/158/1 136/160/1
f 148/172/1 135/155/1 146/169/1
f 148/172/1 136/156/1 135/155/1
f 149/173/1 138/158/1 148/171/1
f 150/174/1 131/162/1 142/164/1
f 151/175/1 131/162/1 150/174/1
f 152/176/1 153/177/1 143/165/1
f 152/176/1 143/165/1 134/167/1
f 154/178/1 153/177/1 152/176/1
f 155/179/1 153/177/1 154/178/1
f 157/180/1 152/181/1 151/182/1
f 158/183/1 152/181/1 157/180/1
f 159/184/1 160/185/1 161/186/1
f 162/187/1 160/185/1 159/184/1
f 163/188/1 164/189/1 165/190/1
f 166/191/1 164/189/1 163/188/1
f 167/192/1 168/193/1 169/194/1
f 170/195/1 167/192/1 169/194/1
f 170/195/1 171/196/1 167/192/1
f 172/197/1 171/196/1 170/195/1
f 173/198/3 174/199/3 175/200/3
f 173/198/3 175/200/3 176/201/3
f 175/200/3 177/202/3 176/201/3
f 176/201/3 177/202/3 178/203/3
f 179/204/3 180/205/3 181/206/3
f 181/206/3 180/205/3 182/207/3
f 183/208/3 184/209/3 185/210/3
f 185/210/3 184/209/3 186/211/3
f 187/212/3 188/213/3 189/214/3
f 189/214/3 188/213/3 190/215/3
f 191/216/3 192/217/3 193/218/3
f 192/219/3 194/220/3 195/221/3
f 196/222/3 189/223/3 197/224/3
f 197/224/3 189/223/3 198/225/3
f 190/226/3 199/227/3 200/228/3
f 199/227/3 201/229/3 200/228/3
f 202/230/3 193/218/3 203/231/3
f 192/219/3 195/221/3 204/232/3
f 203/231/3 193/218/3 204/233/3
f 193/218/3 192/217/3 204/233/3
f 204/232/3 195/221/3 205/234/3
f 198/225/3 189/223/3 206/235/3
f 206/235/3 189/223/3 207/236/3
f 200/228/3 208/237/3 209/238/3
f 190/226/3 200/228/3 209/238/3
f 209/238/3 208/237/3 210/239/3
f 210/239/3 208/237/3 211/240/3
f 207/241/3 209/242/3 213/243/3
f 213/243/3 209/242/3 214/244/3
f 215/245/3 216/246/3 217/247/3
f 217/247/3 216/246/3 218/248/3
f 219/249/3 217/247/3 220/250/3
f 220/250/3 217/247/3 221/251/3
f 221/251/3 222/252/3 223/253/3
f 223/253/3 222/252/3 224/254/3
f 225/255/3 226/256/3 227/257/3
f 227/257/3 228/258/3 229/259/3
f 225/255/3 227/257/3 229/259/3
f 229/259/3 228/258/3 230/260/3
f 231/261/5 232/262/5 233/263/5
f 234/264/5 232/262/5 231/261/5
f 235/265/5 236/266/5 237/267/5
f 238/268/5 236/266/5 235/265/5
f 245/269/5 246/270/5 247/271/5
f 248/272/5 246/270/5 245/269/5
f 249/273/5 245/269/5 250/274/5
f 251/275/5 245/269/5 249/273/5
f 252/276/5 253/277/5 248/272/5
f 254/278/5 253/277/5 252/276/5
f 255/279/5 252/276/5 251/275/5
f 256/280/5 252/276/5 255/279/5
f 257/281/5 258/282/5 259/283/5
f 260/284/5 258/282/5 257/281/5
f 261/285/5 257/281/5 262/286/5
f 263/287/5 257/281/5 261/285/5
f 264/288/5 265/289/5 260/284/5
f 266/290/5 265/289/5 264/288/5
f 267/291/5 268/292/5 269/293/5
f 270/294/5 268/292/5 267/291/5
f 271/295/5 272/296/5 273/297/5
f 274/298/5 272/296/5 271/295/5
f 275/299/5 271/295/5 270/294/5
f 276/300/5 271/295/5 275/299/5
f 287/301/6 288/302/6 289/303/6
f 289/303/6 288/302/6 290/304/6
f 291/305/6 289/303/6 292/306/6
f 292/306/6 289/303/6 293/307/6
f 293/307/6 294/308/6 295/309/6
f 295/309/6 294/308/6 296/310/6
f 297/311/6 298/312/6 299/313/6
f 299/313/6 298/312/6 300/314/6
f 301/315/6 299/313/6 302/316/6
f 302/316/6 299/313/6 303/317/6
f 304/318/6 305/319/6 306/320/6
f 306/320/6 305/319/6 307/321/6
f 308/322/6 309/323/6 310/324/6
f 310/324/6 309/323/6 311/325/6
f 311/325/6 312/326/6 313/327/6
f 313/327/6 312/326/6 314/328/6
f 315/329/6 316/330/6 317/331/6
f 317/331/6 316/330/6 318/332/6
f 318/332/6 319/333/6 320/334/6
f 320/334/6 319/333/6 321/335/6
f 322/336/6 323/337/6 324/338/6
f 324/338/6 323/337/6 325/339/6
f 326/340/6 324/338/6 327/341/6
f 327/341/6 324/338/6 328/342/6
f 329/343/6 330/344/6 331/345/6
f 331/345/6 330/344/6 332/346/6
f 333/347/6 334/348/6 335/349/6
f 335/349/6 334/348/6 336/350/6
l 150 156
l 81 82
l 43 44
l 206 212
l 41 42
l 79 80
